<svg xmlns="http://www.w3.org/2000/svg" viewBox="0 0 512 512" id="gear">
  <path fill="#529efd" d="m495.9 217.78-123.62-9.95 80.38-94.44a17.6 17.6 0 0 0-1-23.72l-29.33-29.38a17.6 17.6 0 0 0-23.72-.95l-94.44 80.38-9.95-123.62A17.6 17.6 0 0 0 276.77 0h-41.54a17.6 17.6 0 0 0-17.45 16.1l-9.95 123.62-94.44-80.38a17.6 17.6 0 0 0-23.72.95L60.29 89.67a17.6 17.6 0 0 0-.95 23.72l80.38 94.44-123.62 9.95A17.6 17.6 0 0 0 0 235.23v41.54a17.6 17.6 0 0 0 16.1 17.45l123.62 9.95-80.38 94.44a17.6 17.6 0 0 0 .95 23.72l29.38 29.38a17.6 17.6 0 0 0 23.72 1l94.44-80.38 9.95 123.62A17.6 17.6 0 0 0 235.23 512h41.54a17.6 17.6 0 0 0 17.45-16.1l9.95-123.62 94.44 80.38a17.6 17.6 0 0 0 23.72-1l29.38-29.38a17.6 17.6 0 0 0 1-23.72l-80.38-94.44 123.62-9.95a17.6 17.6 0 0 0 16.05-17.4v-41.54a17.6 17.6 0 0 0-16.1-17.45Z"></path>
  <path fill="#167ddb" d="M291.77 497h-41.54a17.6 17.6 0 0 1-17.45-16.1l-9.95-123.62-94.44 80.38a17.6 17.6 0 0 1-23.72-1l-29.38-29.33a17.6 17.6 0 0 1-1-23.72l80.38-94.44-123.57-9.95A17.6 17.6 0 0 1 15 261.77v-41.54a16.39 16.39 0 0 1 .18-2.33A17.59 17.59 0 0 0 0 235.23v41.54a17.6 17.6 0 0 0 16.1 17.45l123.62 9.95-80.38 94.44a17.6 17.6 0 0 0 .95 23.72l29.38 29.38a17.6 17.6 0 0 0 23.72 1l94.44-80.38 9.95 123.62A17.6 17.6 0 0 0 235.23 512h41.54a17.59 17.59 0 0 0 17.33-15.18 16.39 16.39 0 0 1-2.33.18zM128.73 194.93l26-2.1-80.39-94.44a17.6 17.6 0 0 1 1-23.72l-15 15a17.6 17.6 0 0 0-.95 23.72zm94.1-70.21L232.78 1.1c0-.32.08-.62.12-.92a17.6 17.6 0 0 0-15.12 15.92l-7.85 97.63zm288.07 154.5-123.62 9.95 11 12.9 97.63-7.85a17.6 17.6 0 0 0 15.92-15.12c-.31.04-.61.09-.93.12zm-97.29 158.44-94.44-80.38-2.1 26 81.54 69.39a17.6 17.6 0 0 0 23.72-1l15-15a17.6 17.6 0 0 1-23.72 1z"></path>
  <circle cx="256" cy="256" r="182.5" fill="#576473"></circle>
  <path fill="#3b4855" d="M271 418.5c-100.63 0-182.5-81.87-182.5-182.5a181.41 181.41 0 0 1 29.29-99A181.69 181.69 0 0 0 73.5 256c0 100.63 81.87 182.5 182.5 182.5a182.5 182.5 0 0 0 153.21-83.45A182.14 182.14 0 0 1 271 418.5Z"></path>
  <circle cx="256" cy="256" r="117.5" fill="#e3e9f7"></circle>
  <path fill="#c5cfe2" d="M271 358.5a117.44 117.44 0 0 1-90.21-192.71 117.46 117.46 0 1 0 165.42 165.42A117 117 0 0 1 271 358.5Z"></path>
  <circle cx="256" cy="256" r="47.5" fill="#576473"></circle>
  <path fill="#3b4855" d="M271 288.5a47.46 47.46 0 0 1-40.22-72.72 47.48 47.48 0 1 0 65.44 65.44A47.13 47.13 0 0 1 271 288.5Z"></path>
</svg>
